# xmcd
#
# Track frame offsets:
#	182
#	8767
#	17942
#	29445
#	44527
#	61470
#	72312
#	85052
#	98422
#	112670
#	123250
#	134947
#	146350
#	161020
#	171310
#	184947
#	196725
#	208102
#	220372
#	234620
#
# Disc length: 3307 seconds
#
# Revision: 1
# Processed by: cddbd v1.4PL0 Copyright (c) Steve Scherf et al.
# Submitted via: audiograbber 1.82.02
#
DISCID=200ce914
DTITLE=Various Artist - Country Gold [CDOne)
DYEAR=1900
DGENRE=Country
TTITLE0=Waylon Jennings - Abiline
TTITLE1=Faron Young  - Hello Walls
TTITLE2=Kitty Wells  - It Wasn't God Who Made Honky Tonk Angels
TTITLE3=George Hamilton IV  - One Day At A Time
TTITLE4=Conway Twitty - Don't Cry Joni
TTITLE5=Billie Jo Spears - I'm So Lonesome I Could Cry
TTITLE6=Lynn Anderson - Rose Garden
TTITLE7=Frankie Laine - High Noon
TTITLE8=Joni Bishop -  Everyday Miracles
TTITLE9=Hoyt Axton  - Heartbreak Hotel
TTITLE10=Patsy Cline - Walking After Midnight
TTITLE11=George Jones - White Lightening
TTITLE12=Willie Nelson - Face Of A Fighter
TTITLE13=Roger Miller - Engine, Engine No.9
TTITLE14=The Kendalls - Heartaches By The Number
TTITLE15=Conway Twitty - (Lying Here With) Linda On My Mind
TTITLE16=Porter Wagoner -  Angel Band
TTITLE17=Merel Haggart - Okie From Muskogee
TTITLE18=Lee Greenwood -  I.O.U
TTITLE19=T. Graham Brown - I Wish I Could Hurt That Way Again
EXTD=
EXTT0=
EXTT1=
EXTT2=
EXTT3=
EXTT4=
EXTT5=
EXTT6=
EXTT7=
EXTT8=
EXTT9=
EXTT10=
EXTT11=
EXTT12=
EXTT13=
EXTT14=
EXTT15=
EXTT16=
EXTT17=
EXTT18=
EXTT19=
PLAYORDER=
